<?xml version="1.0" encoding="utf-8"?>
<!-- Svg Vector Icons : http://www.onlinewebfonts.com/icon -->
<!DOCTYPE svg PUBLIC "-//W3C//DTD SVG 1.1//EN" "http://www.w3.org/Graphics/SVG/1.1/DTD/svg11.dtd">
<svg version="1.1" xmlns="http://www.w3.org/2000/svg" xmlns:xlink="http://www.w3.org/1999/xlink" x="0px" y="0px" viewBox="0 0 1000 1000" enable-background="new 0 0 1000 1000" xml:space="preserve">
<metadata> Svg Vector Icons : http://www.onlinewebfonts.com/icon </metadata>
<g><g transform="translate(0.000000,511.000000) scale(0.100000,-0.100000)"><path d="M1963.4,4572.2c-93.6-144.1-110.5-492.3-38.4-833.2c26.4-124.9,43.2-230.5,38.4-237.7c-19.2-16.8-81.6,127.3-184.9,429.8c-117.7,345.8-225.7,597.9-256.9,597.9c-52.8,0-72-420.2-26.4-588.3c14.4-52.8,69.6-189.7,122.5-307.4c96-204.1,105.6-271.4,31.2-208.9c-19.2,16.8-177.7,218.5-350.6,446.6c-175.3,230.5-326.6,417.8-338.6,417.8c-26.4,0-24-232.9,4.8-341c14.4-48,88.9-187.3,168.1-307.4c79.2-120.1,144.1-223.3,144.1-228.1c0-40.8-67.2,14.4-266.5,216.1c-122.5,124.9-232.9,228.1-244.9,228.1c-14.4,0-16.8-74.5-4.8-184.9c12-153.7,33.6-220.9,110.5-362.6c122.5-228.1,122.5-283.4,4.8-170.5c-112.9,108.1-199.3,165.7-244.9,165.7c-26.4,0-31.2-31.2-19.2-165.7c16.8-196.9,64.8-324.2,165.7-427.4C866,2620,830,2608,688.3,2680c-122.5,62.4-242.5,74.4-235.3,24c16.8-153.7,62.4-283.3,139.3-396.2c103.2-148.9,98.5-187.3-9.6-108.1c-86.5,60-170.5,45.6-170.5-26.4c0-26.4,33.6-117.6,72-206.5c55.2-122.5,64.8-163.3,43.2-180.1c-16.8-9.6-38.4-19.2-48-19.2c-33.6,0-19.2-132.1,26.4-232.9c40.8-84,62.4-105.7,151.3-127.3c259.3-72,280.9-127.3,52.8-139.3c-184.9-9.6-218.5-45.6-153.7-175.3c26.4-50.4,72-105.6,103.2-120.1c76.8-40.8,76.8-40.8,16.8-88.8l-57.6-45.6l84-129.7c62.4-96,84-158.5,86.5-249.7c9.6-196.9,33.6-348.2,60-348.2c14.4,0,19.2-40.8,9.6-105.7C842-95.8,844.4-98.2,916.4-112.6c79.2-16.8,79.2-19.2,81.6-329c2.4-117.7,9.6-134.5,69.6-163.3c57.6-28.8,64.8-45.6,67.2-156.1c2.4-69.6,9.6-151.3,19.2-184.9c16.8-57.6,24-60,158.5-52.8l144.1,9.6l-67.2-69.6c-57.6-62.4-64.8-91.2-72-242.5c-4.8-153.7,0-175.3,48-208.9c28.8-19.2,55.2-60,60-91.2c7.2-55.3,31.2-57.6,168.1-31.2l64.8,12l-33.6-79.2c-24-60-28.8-103.3-9.6-165.7c14.4-52.8,14.4-105.7,0-146.5c-36-93.6,2.4-93.6,132.1-2.4c168.1,120.1,213.7,105.6,153.7-48c-16.8-43.2-14.4-96.1,4.8-170.5c24-84,24-122.5-2.4-184.9c-16.8-40.8-55.2-139.3-84-216.1c-33.6-88.8-93.6-180.1-168.1-254.5c-98.5-98.4-136.9-122.5-232.9-134.5c-297.8-40.8-456.2-103.3-886.1-350.6C294.5-3508,100-3625.6,100-3632.9c2.4-36,170.5-117.6,213.7-105.6c64.8,16.8,64.8-31.2,0-64.8c-38.4-21.6-43.2-33.6-21.6-60c21.6-26.4,14.4-52.8-38.4-120.1c-100.8-132.1-50.4-148.9,172.9-60C741.1-3913.8,854-3877.8,914-3875.4c57.6,0,57.6-2.4-16.8-55.2c-84-64.8-374.6-456.2-343.4-468.2c12-4.8,180.1,40.8,377,98.4c196.9,60,422.6,120.1,501.9,136.9c206.5,40.8,247.3,69.6,396.2,266.5l132.1,175.3l132.1-9.6c254.5-21.6,590.7-4.8,864.4,45.6c151.3,26.4,379.4,60,504.3,72c398.6,40.8,1042.1,261.7,1524.8,525.8c545.1,297.8,773.2,463.4,1227,895.7c302.6,288.1,362.6,336.2,600.3,458.7c425,218.5,751.6,357.8,991.7,417.8c201.7,52.8,276.1,57.6,739.6,57.6c408.2,0,564.3,9.6,758.8,45.6c134.5,26.4,314.6,55.3,398.6,67.3c312.2,38.4,252.1,165.7-165.7,348.2c-151.3,64.8-384.2,192.1-516.3,278.5l-237.7,160.9l-259.3,7.2l-261.7,9.6l-280.9-134.5c-403.4-192.1-1455.2-552.3-1757.7-602.7c-266.5-45.6-751.6-40.8-869.3,7.2c-67.2,26.4-67.2,28.8-67.2,254.5c0,288.1,33.6,441.8,134.5,641.1c122.5,232.9,136.9,365,120.1,958.1c-19.2,669.9-194.5,2408.4-242.5,2394c-12-4.8-55.2-60-96-124.9c-72-115.3-72-120.1-81.7-509.1c-2.4-216.1-12-389-16.8-384.2c-4.8,4.8-52.8,206.5-103.3,446.6c-52.8,242.5-103.3,446.6-110.5,456.2c-24,21.6-79.2-62.4-134.5-211.3c-55.2-146.5-50.4-290.5,14.4-636.3c19.2-93.6,24-180.1,14.4-189.7c-12-12-64.8,62.4-120.1,163.3c-112.9,208.9-336.2,533.1-379.4,549.9c-38.4,16.8-38.4-40.8,2.4-393.8c19.2-151.3,31.2-280.9,26.4-283.3c-4.8-4.8-76.8,84-158.5,196.9c-81.6,112.9-158.5,199.3-168.1,192.1c-40.8-24-69.6-199.3-69.6-434.6c0-136.9-7.2-247.3-14.4-247.3c-7.2,0-48,26.4-91.2,60c-43.2,33.6-91.3,60-108.1,60c-16.8,0-50.4-50.4-79.2-112.9c-40.8-93.7-45.6-136.9-31.2-278.5c12-139.3,9.6-165.7-16.8-144.1c-16.8,14.4-60,33.6-93.6,45.6c-108.1,36-357.8,379.4-655.5,898.1c-360.2,629.1-552.3,1022.9-614.7,1263c-26.4,105.7-81.6,384.2-120.1,619.5c-38.4,235.3-76.8,434.6-81.6,439.4C2006.6,4625,1985,4603.4,1963.4,4572.2z"/></g></g>
</svg>