<?xml version="1.0" encoding="utf-8"?>
<!-- Svg Vector Icons : http://www.onlinewebfonts.com/icon -->
<!DOCTYPE svg PUBLIC "-//W3C//DTD SVG 1.1//EN" "http://www.w3.org/Graphics/SVG/1.1/DTD/svg11.dtd">
<svg version="1.1" xmlns="http://www.w3.org/2000/svg" xmlns:xlink="http://www.w3.org/1999/xlink" x="0px" y="0px" viewBox="0 0 1000 1000" enable-background="new 0 0 1000 1000" xml:space="preserve">
<metadata> Svg Vector Icons : http://www.onlinewebfonts.com/icon </metadata>
<g><path d="M277.5,177.3c-56.1,0-104.2,13.6-144.6,40.7C92.5,245.1,62,283.4,41.2,333C20.4,382.6,10,440.3,10,506.2c0,105,20,184,60.1,237c40,53,99.2,79.5,177.4,79.5c36.3,0,69.7-1.9,100-5.8c30.3-3.8,60-9.6,88.9-17.3V667.5h-45.7c-9.9,30.5-20.3,53.6-31.2,69.3c-10.9,15.7-24.4,27.2-40.4,34.4c-16,7.2-36.7,10.9-61.9,10.9c-33.3,0-61.3-10.9-84.1-32.6c-22.8-21.7-40-53.9-51.7-96.5c-11.7-42.6-17.6-94.2-17.6-154.5c0-60.1,7.1-111.2,21.3-153.6c14.2-42.3,33.6-74.1,58.4-95.2c24.8-21.1,53-31.6,84.8-31.6c21.3,0,39.4,3.4,54.5,10.2c15.1,6.8,28.3,18.1,39.7,34c11.4,15.9,20.8,37.2,28.2,64h45.7v-128c-30.5-8-57.6-13.5-81.3-16.4C331.4,178.8,305.5,177.3,277.5,177.3L277.5,177.3z"/><path d="M593.8,393.9h-35.9v92.3h-90.1v33.9h90.1v92.5h35.9v-92.5h90.3v-33.9h-90.3V393.9z"/><path d="M899.7,486.2v-92.3h-35.9v92.3h-90.1v33.9h90.1v92.5h35.9v-92.5H990v-33.9H899.7z"/></g>
</svg>