<?xml version="1.0" encoding="UTF-8" standalone="no"?>
<svg
   xmlns:dc="http://purl.org/dc/elements/1.1/"
   xmlns:cc="http://creativecommons.org/ns#"
   xmlns:rdf="http://www.w3.org/1999/02/22-rdf-syntax-ns#"
   xmlns:svg="http://www.w3.org/2000/svg"
   xmlns="http://www.w3.org/2000/svg"
   xmlns:sodipodi="http://sodipodi.sourceforge.net/DTD/sodipodi-0.dtd"
   xmlns:inkscape="http://www.inkscape.org/namespaces/inkscape"
   width="1513.6824mm"
   height="279.90225mm"
   viewBox="0 0 1513.6824 279.90226"
   version="1.1"
   id="svg972"
   inkscape:version="1.0.2 (e86c870879, 2021-01-15, custom)"
   sodipodi:docname="group-logo.svg">
  <defs
     id="defs966" />
  <sodipodi:namedview
     id="base"
     pagecolor="#ffffff"
     bordercolor="#666666"
     borderopacity="1.0"
     inkscape:pageopacity="0.0"
     inkscape:pageshadow="2"
     inkscape:zoom="0.12374369"
     inkscape:cx="2797.0371"
     inkscape:cy="588.71065"
     inkscape:document-units="mm"
     inkscape:current-layer="layer1"
     showgrid="false"
     inkscape:window-width="1920"
     inkscape:window-height="1017"
     inkscape:window-x="-8"
     inkscape:window-y="-8"
     inkscape:window-maximized="1"
     inkscape:document-rotation="0"
     fit-margin-top="0"
     fit-margin-left="0"
     fit-margin-right="0"
     fit-margin-bottom="0" />
  <metadata
     id="metadata969">
    <rdf:RDF>
      <cc:Work
         rdf:about="">
        <dc:format>image/svg+xml</dc:format>
        <dc:type
           rdf:resource="http://purl.org/dc/dcmitype/StillImage" />
        <dc:title />
      </cc:Work>
    </rdf:RDF>
  </metadata>
  <g
     inkscape:label="Layer 1"
     inkscape:groupmode="layer"
     id="layer1"
     transform="translate(884.37126,-11.169702)">
    <g
       id="g844"
       transform="matrix(3.5789358,0,0,3.5789358,-266.08025,-205.14697)">
      <path
         style="fill:#da4b4b;fill-opacity:1;stroke:#000000;stroke-width:1.233;stroke-linecap:butt;stroke-linejoin:miter;stroke-miterlimit:4;stroke-dasharray:none;stroke-opacity:1"
         d="m 84.129176,65.452274 38.569584,66.713256 -5.3337,3.97399 -42.95104,-65.400873 z"
         id="path912"
         inkscape:connector-curvature="0"
         sodipodi:nodetypes="ccccc" />
      <path
         style="fill:#5f70ff;fill-opacity:1;stroke:#000000;stroke-width:1.233;stroke-linecap:butt;stroke-linejoin:miter;stroke-miterlimit:4;stroke-dasharray:none;stroke-opacity:1"
         d="m 104.17439,100.19731 18.52437,31.96822 -5.3337,3.97399 -20.5004,-31.19037 z"
         id="path912-6"
         inkscape:connector-curvature="0"
         sodipodi:nodetypes="ccccc" />
      <path
         id="path899"
         d="m 114.69512,136.20903 c 0.12261,-0.25605 0.47845,-0.62469 0.79074,-0.81922 0.9384,-0.58445 2.4098,-2.85362 3.37849,-5.20985 0.9887,-2.40491 1.06945,-4.58669 0.15576,-6.76674 -0.47739,-1.87353 -1.82418,-3.74613 -2.3193,-3.61465 -0.56181,-0.0827 -0.24961,-0.20016 -1.0145,-1.44644 -1.05392,-1.71704 -0.85715,-1.21565 0.0494,-1.36296 2.24706,-0.067 2.86696,0.62326 4.14961,1.58817 1.19239,1.20165 2.15423,4.15688 2.44245,6.00341 0.38262,2.45109 -1.19189,6.05658 -4.02094,9.20746 -1.20737,1.34474 -3.98907,3.20947 -3.61151,2.42097 h 1e-5 z m -7.96535,-13.24295 c -4.57493,1.59833 -7.895327,0.95028 -10.402379,-2.03024 -1.08975,-1.29543 -1.815163,-4.26249 -1.533842,-6.27415 0.416047,-2.97659 2.727642,-6.00563 6.801161,-8.91208 3.46407,-2.47154 5.44989,-4.7521 6.03888,-6.934919 0.28233,-1.046351 0.0801,-2.714594 -0.42712,-3.523425 -0.53282,-0.849625 -2.5368,-2.099373 -3.70625,-2.311305 -1.1023,-0.199763 -1.54665,-0.408424 -2.06788,-0.08893 -0.21292,0.130511 -0.67712,-0.501137 -1.31861,-1.546281 l -1.043673,-1.974781 0.957223,-0.341358 c 4.71618,-1.681855 7.41812,-0.952066 10.13334,1.608315 3.39343,3.19994 3.18777,8.653217 -0.49289,13.072304 -0.78989,0.94831 -2.52387,2.46326 -4.59237,4.01216 -2.54972,1.90927 -3.53949,2.81083 -4.2522,3.873 -1.690693,2.51973 -1.473743,5.81679 0.45936,6.98361 1.63049,0.94259 1.81253,1.23626 3.77829,0.65074 0.23596,-0.0718 0.38599,0.31362 0.98845,1.29514 l 1.51987,2.09357 -0.26927,0.11461 c -0.51466,0.30098 0.35434,-0.0888 -0.57019,0.23416 l 9e-5,10e-5 z M 91.08839,97.573041 c -4.687734,2.05646 -9.034754,2.649509 -12.384262,1.13429 -0.659062,-0.298136 -1.881921,-1.248757 -2.717353,-2.11255 -2.575311,-2.662391 -3.278616,-5.171702 -2.460625,-8.780325 1.106493,-4.881222 3.546763,-7.3362 14.111261,-14.196587 2.533777,-1.645266 4.767538,-3.176476 4.963784,-3.402587 0.196274,-0.226086 1.246413,-0.504121 2.333641,-0.617878 1.087218,-0.113755 2.384208,-0.351052 2.882107,-0.527336 1.292926,-0.457719 1.487416,0.165719 0.350911,1.124183 -1.441992,1.216059 -1.562327,1.659823 -0.430038,1.586293 l 0.942189,-0.06123 -0.551889,0.719892 c -1.021479,1.332452 -2.387848,2.230874 -4.734914,3.113363 -3.10533,1.167622 -9.755667,4.917358 -11.455268,6.458981 -2.415828,2.191223 -4.060216,5.677254 -3.837117,8.133987 0.183787,2.02346 2.542685,4.265502 5.043464,4.793639 1.982806,0.418796 2.696583,0.832681 4.896463,-0.372739 l 0.725112,-0.351097 1.055201,1.496266 0.818962,1.18916 c -0.114596,0.140639 -0.08276,0.0075 -0.100975,0.01664 0.04023,-0.291105 0.601765,0.706432 0.549346,0.655638 z m 4.161898,-26.745224 c -0.08314,-0.13548 -0.310896,-0.148291 -0.506116,-0.02846 -0.195217,0.119824 -0.355404,0.370736 -0.355981,0.557598 -5.29e-4,0.186862 0.227179,0.199673 0.506116,0.02846 0.278937,-0.171204 0.439137,-0.422121 0.355981,-0.557598 z m 3.247623,-0.05416 c 2.52e-4,-0.145918 0.703067,-0.66161 1.561699,-1.14594 0.85865,-0.484346 1.63385,-1.024969 1.72281,-1.201415 0.0889,-0.176424 0.25842,-0.163123 0.37669,0.02958 0.17023,0.277358 -0.18891,0.58302 -1.72332,1.466713 -1.066106,0.613989 -1.93813,0.99696 -1.937879,0.851029 l 1.3e-5,1.4e-5 z"
         inkscape:connector-curvature="0"
         style="fill:#040405;stroke-width:0.125478"
         sodipodi:nodetypes="ccccccccccccccccccccsccscccccccccccccccccccccccccccccccccccccccccccscccc" />
      <text
         xml:space="preserve"
         style="font-style:normal;font-variant:normal;font-weight:normal;font-stretch:normal;font-size:10.5833px;line-height:1.25;font-family:Calibri;-inkscape-font-specification:Calibri;letter-spacing:0px;word-spacing:0px;fill:#ffffff;fill-opacity:1;stroke:none;stroke-width:0.264583"
         x="31.405367"
         y="107.01656"
         id="text916"
         transform="rotate(-30)"><tspan
           sodipodi:role="line"
           id="tspan914"
           x="31.405367"
           y="107.01656"
           style="stroke-width:0.264583">N</tspan></text>
      <text
         xml:space="preserve"
         style="font-style:normal;font-variant:normal;font-weight:normal;font-stretch:normal;font-size:7.83928px;line-height:1.25;font-family:Calibri;-inkscape-font-specification:Calibri;letter-spacing:0px;word-spacing:0px;fill:#ffffff;fill-opacity:1;stroke:none;stroke-width:0.195982"
         x="34.716206"
         y="172.52246"
         id="text916-7"
         transform="rotate(-30)"><tspan
           sodipodi:role="line"
           id="tspan914-9"
           x="34.716206"
           y="172.52246"
           style="stroke-width:0.195982">S</tspan></text>
    </g>
    <text
       xml:space="preserve"
       style="font-style:normal;font-variant:normal;font-weight:normal;font-stretch:normal;font-size:176.197px;line-height:1.25;font-family:Calibri;-inkscape-font-specification:Calibri;letter-spacing:0px;word-spacing:0px;fill:#000000;fill-opacity:1;stroke:none;stroke-width:4.40493"
       x="-836.10803"
       y="219.72847"
       id="text848"><tspan
         sodipodi:role="line"
         id="tspan846"
         x="-836.10803"
         y="219.72847"
         style="font-style:normal;font-variant:normal;font-weight:bold;font-stretch:normal;font-family:'Trade Gothic LT Std';-inkscape-font-specification:'Trade Gothic LT Std';stroke-width:4.40493">Biodesign      UCC</tspan></text>
  </g>
</svg>
